<?xml version="1.0" standalone="no"?>
<!DOCTYPE svg PUBLIC "-//W3C//DTD SVG 20010904//EN"
 "http://www.w3.org/TR/2001/REC-SVG-20010904/DTD/svg10.dtd">
<svg version="1.0" xmlns="http://www.w3.org/2000/svg"
 width="543.000000pt" height="543.000000pt" viewBox="0 0 543.000000 543.000000"
 preserveAspectRatio="xMidYMid meet">

<g transform="translate(0.000000,543.000000) scale(0.100000,-0.100000)"
fill="#ffffff" stroke="none">
<path d="M115 5033 c-46 -24 -66 -45 -86 -88 -17 -36 -19 -72 -19 -403 0 -282
3 -370 13 -395 8 -18 129 -173 270 -345 l257 -314 0 -517 c0 -290 5 -565 11
-627 82 -842 638 -1564 1421 -1845 177 -64 338 -100 527 -119 206 -20 283 -9
338 51 64 70 56 191 -15 251 -44 37 -80 45 -213 52 -739 37 -1379 524 -1613
1227 -82 249 -96 383 -96 954 l0 455 1801 0 1800 0 -4 -512 c-3 -426 -6 -529
-21 -608 -106 -593 -459 -1071 -986 -1335 -41 -21 -126 -57 -189 -81 -121 -46
-155 -69 -177 -121 -18 -42 -18 -117 0 -152 22 -42 81 -89 121 -97 50 -9 85
-2 200 41 451 167 834 482 1091 898 168 270 283 616 314 942 5 61 10 342 10
627 l0 516 256 314 c142 172 263 327 270 345 22 50 20 739 -1 790 -21 50 -42
72 -90 94 -38 18 -137 19 -2600 18 -2317 0 -2563 -1 -2590 -16z m4935 -493 l0
-150 -2340 0 -2340 0 0 150 0 150 2340 0 2340 0 0 -150z m-286 -617 c-49 -60
-104 -127 -123 -150 l-35 -43 -1896 0 -1896 0 -35 43 c-19 23 -74 90 -123 150
l-88 107 2142 0 2142 0 -88 -107z"/>
<path d="M2556 3180 c-153 -24 -329 -94 -455 -180 -83 -55 -190 -158 -252
-239 -70 -92 -154 -267 -186 -386 -23 -89 -26 -118 -26 -265 0 -146 3 -176 26
-263 103 -386 399 -681 784 -784 87 -23 117 -26 263 -26 146 0 176 3 263 26
385 103 681 398 784 784 23 87 26 117 26 263 0 146 -3 176 -26 263 -103 386
-403 685 -784 783 -110 28 -314 40 -417 24z m359 -380 c126 -39 202 -86 300
-184 100 -100 146 -177 186 -306 34 -108 34 -292 0 -400 -40 -130 -86 -206
-186 -305 -99 -100 -175 -146 -305 -186 -108 -34 -292 -34 -400 0 -129 40
-206 86 -306 186 -99 99 -145 174 -185 305 -34 108 -34 292 0 400 40 131 86
206 185 306 116 115 231 176 384 204 78 15 248 4 327 -20z"/>
<path d="M2593 2575 c-85 -23 -153 -63 -219 -129 -192 -192 -192 -480 0 -672
192 -192 480 -192 672 0 153 153 186 365 88 558 -34 67 -135 168 -202 202
-108 55 -232 69 -339 41z m177 -361 c15 -9 35 -29 44 -44 32 -56 12 -130 -44
-164 -104 -61 -221 56 -165 164 29 56 109 77 165 44z"/>
</g>
</svg>
