<?xml version="1.0" standalone="no"?>
<!DOCTYPE svg PUBLIC "-//W3C//DTD SVG 20010904//EN"
 "http://www.w3.org/TR/2001/REC-SVG-20010904/DTD/svg10.dtd">
<svg version="1.0" xmlns="http://www.w3.org/2000/svg"
 width="604.000000pt" height="603.000000pt" viewBox="0 0 604.000000 603.000000"
 preserveAspectRatio="xMidYMid meet">

<g transform="translate(0.000000,603.000000) scale(0.100000,-0.100000)"
fill="#ffffff" stroke="none">
<path d="M575 6015 c-237 -52 -419 -216 -502 -450 l-28 -80 0 -2455 0 -2455
31 -86 c73 -205 222 -353 429 -426 l80 -28 2423 -3 c2717 -3 2493 -9 2662 74
132 66 228 162 294 294 83 169 77 -55 74 2662 l-3 2423 -28 80 c-73 207 -221
356 -426 429 l-86 31 -2430 2 c-1987 1 -2441 -1 -2490 -12z m4901 -382 c32
-11 66 -34 100 -67 93 -93 84 166 84 -2536 0 -2702 9 -2443 -84 -2536 -93 -93
166 -84 -2536 -84 -2702 0 -2443 -9 -2536 84 -93 93 -84 -166 -84 2536 0 2703
-9 2443 85 2536 90 91 -166 82 2531 83 2212 1 2394 0 2440 -16z"/>
<path d="M941 4899 c-57 -11 -109 -51 -132 -103 -18 -39 -19 -91 -19 -1260 l0
-1220 21 -44 c13 -26 38 -54 62 -70 l41 -27 368 -3 368 -3 0 -179 c0 -190 5
-218 48 -264 58 -62 80 -66 374 -66 l267 0 3 -194 3 -194 31 -39 c16 -21 48
-47 70 -58 38 -19 59 -20 594 -20 535 0 556 1 594 20 22 11 54 37 70 58 l31
39 3 194 3 194 267 0 c294 0 316 4 374 66 43 46 48 74 48 264 l0 179 368 3
368 3 41 27 c24 16 49 44 62 70 l21 44 0 1220 c0 1169 -1 1221 -19 1260 -25
54 -75 92 -141 104 -66 12 -4125 12 -4189 -1z m509 -674 c0 -285 1 -308 20
-344 68 -133 264 -132 329 1 20 42 21 59 21 346 l0 302 95 0 95 0 0 -302 c0
-287 1 -304 21 -346 65 -133 261 -134 329 -1 19 36 20 59 20 344 l0 305 95 0
95 0 0 -295 c0 -316 3 -339 53 -394 29 -31 94 -61 135 -61 40 0 99 24 130 53
56 52 57 58 60 390 l3 307 89 0 89 0 3 -307 c3 -332 4 -338 60 -390 97 -91
250 -56 303 69 12 31 15 89 15 333 l0 295 95 0 95 0 0 -305 c0 -285 1 -308 20
-344 68 -133 264 -132 329 1 20 42 21 59 21 346 l0 302 95 0 95 0 0 -302 c0
-287 1 -304 21 -346 65 -133 261 -134 329 -1 19 36 20 59 20 344 l0 305 140 0
140 0 0 -995 0 -994 -369 -3 -369 -3 -39 -31 c-67 -54 -73 -75 -73 -281 l0
-183 -257 0 c-149 0 -274 -5 -296 -11 -47 -13 -106 -63 -123 -106 -10 -23 -14
-84 -14 -213 l0 -180 -330 0 -330 0 0 180 c0 129 -4 190 -14 213 -17 43 -76
93 -123 106 -22 6 -147 11 -295 11 l-258 0 0 183 c0 206 -6 227 -73 281 l-39
31 -369 3 -369 3 0 994 0 995 140 0 140 0 0 -305z"/>
</g>
</svg>
