<?xml version="1.0" standalone="no"?>
<!DOCTYPE svg PUBLIC "-//W3C//DTD SVG 20010904//EN"
 "http://www.w3.org/TR/2001/REC-SVG-20010904/DTD/svg10.dtd">
<svg version="1.0" xmlns="http://www.w3.org/2000/svg"
 width="537.000000pt" height="537.000000pt" viewBox="0 0 537.000000 537.000000"
 preserveAspectRatio="xMidYMid meet">

<g transform="translate(0.000000,537.000000) scale(0.100000,-0.100000)"
fill="#ffffff" stroke="none">
<path d="M152 5303 c-65 -32 -67 -45 -64 -363 4 -309 7 -327 60 -354 16 -8 88
-19 167 -26 1174 -96 2229 -604 3027 -1457 720 -770 1143 -1740 1228 -2813 18
-220 2 -211 381 -210 322 1 321 0 360 63 17 28 19 43 14 117 -37 531 -125 976
-286 1447 -461 1342 -1453 2458 -2734 3079 -603 293 -1262 470 -1944 523 -170
14 -169 14 -209 -6z"/>
<path d="M153 3800 c-68 -41 -68 -42 -65 -365 4 -310 5 -317 56 -350 14 -10
65 -20 123 -26 515 -51 1032 -238 1453 -527 277 -189 558 -461 759 -732 146
-197 313 -503 396 -725 101 -268 170 -561 190 -805 9 -100 20 -134 56 -165
l31 -25 298 0 298 0 31 26 c46 38 51 73 35 226 -82 790 -376 1494 -876 2095
-134 162 -396 419 -558 548 -587 469 -1275 750 -2028 830 -171 18 -161 19
-199 -5z"/>
<path d="M130 2283 c-18 -16 -35 -44 -39 -65 -14 -61 -1 -568 15 -600 19 -37
53 -53 159 -73 303 -56 607 -216 833 -438 224 -220 393 -528 447 -817 25 -133
33 -157 66 -184 l31 -26 293 0 c204 0 302 4 320 12 14 6 35 27 47 46 24 39 22
91 -13 268 -139 725 -620 1351 -1284 1675 -224 109 -423 174 -654 213 -141 24
-184 22 -221 -11z"/>
<path d="M149 775 c-14 -8 -35 -27 -45 -42 -17 -26 -19 -50 -19 -298 0 -381
-24 -356 346 -355 290 1 316 5 346 63 22 44 12 104 -35 197 -90 178 -228 312
-414 406 -92 46 -134 53 -179 29z"/>
</g>
</svg>
